<svg width="72" height="52" viewBox="0 0 72 52" fill="none" xmlns="http://www.w3.org/2000/svg">
<path d="M49.9558 32.94C49.8339 32.94 49.7097 32.9492 49.5878 32.9695C48.057 33.2127 46.978 34.8864 47.1814 36.7028C47.3661 38.347 48.5608 39.5868 49.9597 39.5868C50.0823 39.5868 50.2057 39.5776 50.3284 39.5583C51.8584 39.3151 52.9375 37.6414 52.7348 35.824C52.5493 34.1799 51.3546 32.94 49.9558 32.94Z" fill="#9B69FF"/>
<path d="M53.7959 12.9721C52.5469 11.9929 50.8981 11.4753 49.0249 11.4753C48.4745 11.4753 47.9086 11.5204 47.3435 11.6098C45.4742 11.9054 43.6608 12.9795 42.3675 14.5546C41.0564 16.1536 40.4191 18.1055 40.6225 19.909C40.7715 21.24 41.6161 22.1004 42.7735 22.1004C42.8977 22.1004 43.0243 22.0893 43.1508 22.07C44.6971 21.8249 45.0309 20.5612 45.3523 19.3398C45.7195 17.947 46.0657 16.6326 48.0639 16.3158C48.2688 16.2835 48.4683 16.2669 48.6577 16.2669C50.0962 16.2669 50.9889 17.1678 51.1729 18.8037C51.3529 20.4046 50.2863 21.6813 49.1569 23.0325C47.8892 24.5496 46.4523 26.2684 46.7263 28.7066C46.797 29.3348 47.0306 29.9206 47.3831 30.3563C47.7875 30.8565 48.3169 31.1209 48.9139 31.1209C49.0233 31.1209 49.1367 31.1126 49.2492 31.0941C50.867 30.8381 51.0875 29.7244 51.3002 28.6458C51.3809 28.2387 51.4647 27.8168 51.6262 27.4373C51.8505 26.9068 52.4118 26.2841 53.0631 25.5638C54.6172 23.8404 56.745 21.4805 56.3514 17.9848C56.1053 15.7953 55.2444 14.1088 53.7959 12.9721Z" fill="#9B69FF"/>
<path d="M71.1699 42.0085L66.8359 3.46893C66.6131 1.49221 65.1785 0 63.4979 0C63.3496 0 63.1983 0.0119741 63.05 0.0359231L30.5713 5.17852C28.73 5.47051 27.4321 7.485 27.6774 9.67081L27.925 11.876L6.62317 8.22373C6.49897 8.20255 6.37243 8.19149 6.24745 8.19149C4.95806 8.19149 3.8472 9.3346 3.66167 10.8498L0.0271419 40.7023C-0.0722217 41.523 0.103217 42.3391 0.520854 43.0033C0.939268 43.6665 1.54942 44.0975 2.24108 44.2155L27.3987 48.5281C27.5237 48.5484 27.6502 48.5585 27.7744 48.5585C29.0638 48.5585 30.1746 47.4173 30.3594 45.9011L31.0829 39.9571L32.0105 48.2076C32.2333 50.1861 33.6679 51.6774 35.3478 51.6774C35.4968 51.6774 35.6482 51.6664 35.7964 51.6433L68.2759 46.4989C69.1663 46.3589 69.9596 45.8136 70.5061 44.9652C71.0542 44.1178 71.2886 43.0668 71.1699 42.0085ZM28.2122 45.5345C28.1781 45.8173 27.9529 46.0218 27.71 45.9794L2.5516 41.6667C2.39246 41.64 2.30086 41.5267 2.25972 41.4613C2.21857 41.3959 2.15337 41.2577 2.17588 41.0698L5.81041 11.2174C5.84224 10.9604 6.03009 10.766 6.24745 10.766C6.26919 10.766 6.2917 10.7679 6.31266 10.7715L28.2239 14.5269L30.031 30.5949L28.2122 45.5345ZM68.2844 42.9489C68.2309 43.0327 68.1098 43.1774 67.9056 43.2096L35.4269 48.3531C35.1125 48.4047 34.8261 48.1366 34.7842 47.77L30.4502 9.23143C30.4083 8.86022 30.6288 8.51849 30.9416 8.46875L63.4195 3.32523C63.4467 3.32155 63.4715 3.31971 63.4987 3.31971C63.7828 3.31971 64.0265 3.57301 64.0638 3.90922L68.3993 42.4487C68.4249 42.691 68.3372 42.866 68.2844 42.9489Z" fill="#9B69FF"/>
<path d="M71.1699 42.0085L66.8359 3.46893C66.6131 1.49221 65.1785 0 63.4979 0C63.3496 0 63.1983 0.0119741 63.05 0.0359231L30.5713 5.17852C28.73 5.47051 27.4321 7.485 27.6774 9.67081L27.925 11.876L6.62317 8.22373C6.49897 8.20255 6.37243 8.19149 6.24745 8.19149C4.95806 8.19149 3.8472 9.3346 3.66167 10.8498L0.0271419 40.7023C-0.0722217 41.523 0.103217 42.3391 0.520854 43.0033C0.939268 43.6665 1.54942 44.0975 2.24108 44.2155L27.3987 48.5281C27.5237 48.5484 27.6502 48.5585 27.7744 48.5585C29.0638 48.5585 30.1746 47.4173 30.3594 45.9011L31.0829 39.9571L32.0105 48.2076C32.2333 50.1861 33.6679 51.6774 35.3478 51.6774C35.4968 51.6774 35.6482 51.6664 35.7964 51.6433L68.2759 46.4989C69.1663 46.3589 69.9596 45.8136 70.5061 44.9652C71.0542 44.1178 71.2886 43.0668 71.1699 42.0085ZM28.2122 45.5345C28.1781 45.8173 27.9529 46.0218 27.71 45.9794L2.5516 41.6667C2.39246 41.64 2.30086 41.5267 2.25972 41.4613C2.21857 41.3959 2.15337 41.2577 2.17588 41.0698L5.81041 11.2174C5.84224 10.9604 6.03009 10.766 6.24745 10.766C6.26919 10.766 6.2917 10.7679 6.31266 10.7715L28.2239 14.5269L30.031 30.5949L28.2122 45.5345ZM68.2844 42.9489C68.2309 43.0327 68.1098 43.1774 67.9056 43.2096L35.4269 48.3531C35.1125 48.4047 34.8261 48.1366 34.7842 47.77L30.4502 9.23143C30.4083 8.86022 30.6288 8.51849 30.9416 8.46875L63.4195 3.32523C63.4467 3.32155 63.4715 3.31971 63.4987 3.31971C63.7828 3.31971 64.0265 3.57301 64.0638 3.90922L68.3993 42.4487C68.4249 42.691 68.3372 42.866 68.2844 42.9489Z" fill="white" fill-opacity="0.2"/>
<path d="M22.4181 19.4236C21.4213 18.3404 19.9448 17.5841 18.2619 17.2958C17.9545 17.2424 17.6385 17.2157 17.3241 17.2157C16.0021 17.2157 14.7026 17.6763 13.6624 18.5126C12.5935 19.373 11.9189 20.5419 11.766 21.8029C11.693 22.4025 11.8133 22.9368 12.1153 23.3494C12.387 23.7197 12.7961 23.9693 13.2681 24.0504C13.3868 24.0707 13.501 24.0817 13.6096 24.0817C14.5621 24.0817 14.9875 23.3107 15.399 22.5655C15.8577 21.731 16.2925 20.9425 17.4483 20.9425C17.6082 20.9425 17.7814 20.9582 17.9607 20.9886C19.33 21.2226 20.0139 22.1842 19.8377 23.6267C19.6879 24.8656 18.6632 25.5518 17.5803 26.2767C16.3639 27.091 14.9844 28.014 14.7546 29.9032C14.6902 30.43 14.7803 30.979 15.0031 31.4073C15.1855 31.7592 15.5426 32.2023 16.2117 32.3174C16.3514 32.3404 16.4842 32.3533 16.6068 32.3533C17.5477 32.3533 17.8691 31.6671 18.178 31.0039C18.3108 30.7193 18.4474 30.4254 18.636 30.1832C18.8976 29.8433 19.4286 29.5191 20.0426 29.1442C21.5098 28.2488 23.5196 27.0201 23.8487 24.3138C24.0824 22.3878 23.5887 20.6966 22.4181 19.4236Z" fill="#9B69FF"/>
<path d="M16.1287 33.8013C16.0263 33.7838 15.923 33.7737 15.8205 33.7737C14.747 33.7737 13.8209 34.7252 13.6672 35.9844C13.4971 37.3909 14.3223 38.7007 15.5077 38.9043C15.6102 38.9227 15.7142 38.9301 15.8159 38.9301C16.8903 38.9301 17.8164 37.9804 17.9693 36.7213C18.1393 35.3147 17.3141 34.0058 16.1287 33.8013Z" fill="#9B69FF"/>
</svg>
