<svg width="25" height="33" viewBox="0 0 25 33" fill="none" xmlns="http://www.w3.org/2000/svg">
<path fill-rule="evenodd" clip-rule="evenodd" d="M19.0204 31.1046L20.7215 31.6828C20.9353 31.7549 21.1704 31.7043 21.3354 31.5494C21.4987 31.3945 21.5644 31.1614 21.5064 30.9421L19.2648 22.5398C19.1594 22.641 19.0418 22.73 18.9135 22.8051C18.5379 23.0229 18.0966 23.098 17.6706 23.0183L15.4198 22.595L13.6821 24.0918C13.5966 24.1654 13.505 24.2298 13.4072 24.2865L15.6076 32.531C15.6656 32.7487 15.8382 32.9174 16.0581 32.9681C16.2779 33.0202 16.507 32.9466 16.6566 32.7764L17.8415 31.4222L16.9773 28.1849C16.8902 27.8582 17.0826 27.5208 17.4094 27.4334C17.7347 27.346 18.0691 27.5392 18.1561 27.8674L19.0204 31.1046Z" fill="#B0732C"/>
<path fill-rule="evenodd" clip-rule="evenodd" d="M7.15875 31.4218L8.34367 32.7759C8.49332 32.9462 8.72236 33.0198 8.94223 32.9676C9.16212 32.917 9.33467 32.7483 9.39268 32.529L11.5931 24.2862C11.4953 24.2294 11.4037 24.165 11.3182 24.0914L9.5805 22.5946L7.32972 23.0179C6.90371 23.0976 6.46237 23.0225 6.08675 22.8047C5.95848 22.7296 5.8409 22.6406 5.73554 22.5394L3.49391 30.9417C3.43588 31.161 3.50154 31.3941 3.66493 31.549C3.82984 31.7039 4.06499 31.7545 4.27878 31.6824L5.97986 31.1042L6.84412 27.8669C6.93116 27.5387 7.26556 27.3455 7.59083 27.4329C7.91761 27.5203 8.11 27.8577 8.02298 28.1843L7.15875 31.4218Z" fill="#B0732C"/>
<path fill-rule="evenodd" clip-rule="evenodd" d="M12.1123 0.137198C12.2207 0.0436511 12.3582 -0.00695801 12.5002 -0.00695801C12.6422 -0.00695801 12.7796 0.0436511 12.888 0.137198L14.8472 1.82413C14.9876 1.94681 15.1755 1.99589 15.3572 1.96215L17.8966 1.48523C18.0355 1.45916 18.1806 1.48369 18.3028 1.55424C18.4249 1.62631 18.5196 1.73827 18.5669 1.87322L19.4236 4.3208C19.4846 4.49562 19.6221 4.63364 19.7961 4.69499L22.2332 5.55531C22.3676 5.60285 22.4791 5.69793 22.5508 5.82062C22.6211 5.94331 22.6455 6.08899 22.6196 6.22856L22.1447 8.77888C22.1111 8.96138 22.1599 9.15001 22.2821 9.2911L23.9618 11.2587C24.0549 11.3675 24.1053 11.5056 24.1053 11.6482C24.1053 11.7908 24.0549 11.9288 23.9618 12.0377L22.2821 14.0053C22.1599 14.1464 22.1111 14.335 22.1447 14.5175L22.6196 17.0678C22.6455 17.2074 22.6211 17.353 22.5508 17.4757C22.4791 17.5984 22.3676 17.6935 22.2332 17.741L19.7961 18.6014C19.6221 18.6627 19.4846 18.8007 19.4236 18.9756L18.5669 21.4231C18.5196 21.5581 18.4249 21.67 18.3028 21.7421C18.1806 21.8127 18.0355 21.8372 17.8966 21.8111L15.3572 21.3342C15.1755 21.3005 14.9876 21.3496 14.8472 21.4722L12.888 23.1592C12.7796 23.2527 12.6422 23.3033 12.5002 23.3033C12.3582 23.3033 12.2207 23.2527 12.1123 23.1592L10.1532 21.4722C10.0127 21.3495 9.8249 21.3005 9.64319 21.3342L7.1038 21.8111C6.96484 21.8372 6.81978 21.8127 6.69761 21.7421C6.57545 21.67 6.48077 21.5581 6.43344 21.4231L5.5768 18.9756C5.51572 18.8007 5.37829 18.6627 5.20422 18.6014L2.76713 17.741C2.63276 17.6935 2.52129 17.5984 2.44952 17.4757C2.37928 17.3531 2.35485 17.2074 2.38081 17.0678L2.85568 14.5175C2.88928 14.335 2.84041 14.1464 2.71825 14.0053L1.03856 12.0377C0.945411 11.9288 0.89502 11.7908 0.89502 11.6482C0.89502 11.5056 0.945411 11.3675 1.03856 11.2587L2.71825 9.2911C2.84041 9.15001 2.88928 8.96138 2.85568 8.77888L2.38081 6.22856C2.35485 6.08901 2.37928 5.94332 2.44952 5.82062C2.52129 5.69793 2.63276 5.60285 2.76713 5.55531L5.20422 4.69499C5.37829 4.63364 5.51572 4.49562 5.5768 4.3208L6.43344 1.87322C6.48077 1.73827 6.57545 1.62631 6.69761 1.55424C6.81977 1.48369 6.96483 1.45916 7.1038 1.48523L9.64319 1.96215C9.8249 1.99589 10.0127 1.94681 10.1532 1.82413L12.1123 0.137198ZM12.5002 3.67359C8.1177 3.67359 4.56003 7.24682 4.56003 11.6479C4.56003 16.0491 8.11793 19.6223 12.5002 19.6223C16.8824 19.6223 20.4403 16.0491 20.4403 11.6479C20.4403 7.24682 16.8824 3.67359 12.5002 3.67359ZM12.5002 4.90045C16.2077 4.90045 19.2191 7.92463 19.2191 11.6483C19.2191 15.372 16.2079 18.3962 12.5002 18.3962C8.79245 18.3962 5.78123 15.372 5.78123 11.6483C5.78123 7.92463 8.79245 4.90045 12.5002 4.90045ZM11.1732 6.9585L10.341 8.66227L8.46893 8.93064C7.91005 9.01038 7.44584 9.40297 7.27177 9.94278C7.0977 10.4811 7.24429 11.0715 7.64894 11.4671L9.00644 12.7891L8.6812 14.6585C8.585 15.2167 8.81252 15.7811 9.26909 16.1138C9.72567 16.4481 10.3303 16.4911 10.8297 16.2258L12.5002 15.3379L14.1707 16.2258C14.67 16.4911 15.2747 16.4481 15.7313 16.1138C16.1879 15.781 16.4154 15.2167 16.3192 14.6585L15.9939 12.7891L17.3514 11.4671C17.7561 11.0715 17.9027 10.4811 17.7286 9.94278C17.5545 9.40297 17.0903 9.01038 16.5314 8.93064L14.6593 8.66227L13.8271 6.9585C13.5798 6.44934 13.0652 6.1273 12.5002 6.1273C11.9352 6.1273 11.4206 6.44935 11.1732 6.9585ZM12.2696 7.49831C12.3124 7.40936 12.4025 7.35415 12.5002 7.35415C12.5979 7.35415 12.688 7.40936 12.7308 7.49831L13.705 9.495C13.7951 9.67596 13.9676 9.80324 14.1677 9.83085L16.3589 10.1452C16.4551 10.159 16.536 10.228 16.5666 10.3216C16.5971 10.4151 16.5712 10.5179 16.5009 10.5869L14.9129 12.1343C14.7678 12.2753 14.7006 12.4793 14.7357 12.6787L15.1159 14.8686C15.1327 14.9667 15.093 15.0649 15.0136 15.1216C14.9342 15.1799 14.8289 15.1876 14.7418 15.1416L12.7858 14.1018C12.6071 14.0067 12.3933 14.0067 12.2147 14.1018L10.2586 15.1416C10.1716 15.1876 10.0662 15.1799 9.98681 15.1216C9.90741 15.0649 9.86771 14.9667 9.88451 14.8686L10.2647 12.6787C10.2998 12.4793 10.2327 12.2754 10.0876 12.1343L8.49953 10.5869C8.42929 10.5179 8.40333 10.4151 8.43387 10.3216C8.46441 10.228 8.54534 10.159 8.64154 10.1452L10.8328 9.83085C11.0328 9.80324 11.2054 9.67596 11.2955 9.495L12.2696 7.49831Z" fill="#B0732C"/>
</svg>
